#!OML:ASF F:\VICON\USERDATA\Patient Classification 1\PLAYGROUND\JustinFriday\JustinFriday.ASF
:FULLY-SPECIFIED
:DEGREES
4211
root 43.849 18.519 -9.71757 201.023 -98.693 -186.394
lowerback 24.0881 5.89415 -3.21876
upperback 13.9625 5.77147 11.7447
thorax 0.647301 1.66123 13.711
lowerneck -10.4583 -6.41084 -11.1823
upperneck 16.7015 -6.83553 -1.00272
head 7.24247 -4.10955 0.818718
rclavicle 6.36111e-015 -1.59028e-015
rhumerus 67.9803 0.365715 -47.8315
rradius 25.4575
rwrist 15.7588
rhand -31.8749 -14.5127
rfingers 7.12502
rthumb -5.12792 -404.431
lclavicle 6.36111e-015 -1.59028e-015
lhumerus 64.3601 -16.9289 85.9104
lradius 37.8294
lwrist -19.2084
lhand -16.8169 -16.779
lfingers 7.12502
lthumb 9.41206 12.9909
rfemur -33.6035 2.12253 21.2638
rtibia 34.5726
rfoot -14.5312 0.275424
rtoes 42.4452
lfemur -25.5479 4.38057 -17.0988
ltibia 28.847
lfoot -13.4109 -3.54184
ltoes 14.5631
4212
root 43.8813 18.5739 -9.70552 201.627 -98.8381 -187.011
lowerback 23.8513 5.87276 -3.3189
upperback 13.6164 5.80579 11.7756
thorax 0.345282 1.72303 13.792
lowerneck -10.4921 -6.34386 -11.2734
upperneck 17.0046 -6.70765 -1.10021
head 7.34311 -4.07521 0.808071
rclavicle -9.54166e-015 6.99722e-014
rhumerus 67.2717 0.708335 -47.0107
rradius 25.4075
rwrist 14.8117
rhand -31.3158 -15.4446
rfingers 7.12502
rthumb -4.58806 -405.375
lclavicle -9.54166e-015 6.99722e-014
lhumerus 63.518 -17.1822 85.985
lradius 37.8348
lwrist -18.576
lhand -16.5964 -17.7963
lfingers 7.12502
lthumb 9.62476 11.9638
rfemur -33.6575 2.713 20.885
rtibia 34.626
rfoot -14.2312 -0.0507279
rtoes 40.4901
lfemur -25.6819 4.27449 -16.9176
ltibia 28.3545
lfoot -12.4871 -4.21318
ltoes 16.0613
4213
root 43.9142 18.5403 -9.68495 200.221 -99.0893 -185.699
lowerback 23.6559 5.77449 -3.50499
upperback 13.2865 5.72337 11.7008
thorax 0.0775587 1.72502 13.8318
lowerneck -10.2982 -6.16231 -11.0825
upperneck 17.01 -6.48925 -1.28401
head 7.28633 -3.9776 0.748557
rclavicle 2.54444e-014 3.33958e-014
rhumerus 66.5229 1.11889 -46.1904
rradius 25.4561
rwrist 13.7039
rhand -31.4027 -16.78
rfingers 7.12502
rthumb -4.67195 -406.709
lclavicle 2.54444e-014 3.33958e-014
lhumerus 62.5824 -17.5615 85.5319
lradius 38.2756
lwrist -17.7719
lhand -15.8819 -18.9643
lfingers 7.12502
lthumb 10.3141 10.7627
rfemur -33.5216 2.05285 20.8819
rtibia 34.3256
rfoot -13.1996 -0.487184
rtoes 34.6777
lfemur -25.8184 2.01463 -16.7324
ltibia 28.5233
lfoot -12.845 -2.62954
ltoes 16.5072
4214
root 43.9457 18.5794 -9.66718 200.494 -99.3411 -186.009
lowerback 23.3715 5.67371 -3.4799
upperback 12.9678 5.66957 11.6719
thorax -0.128143 1.74414 13.7911
lowerneck -10.1139 -6.00096 -10.9811
upperneck 16.9376 -6.29997 -1.35356
head 7.21467 -3.88593 0.737306
rclavicle 3.18055e-014 0
rhumerus 65.7827 1.29061 -46.1373
rradius 25.5228
rwrist 13.6899
rhand -30.4397 -17.2552
rfingers 7.12502
rthumb -3.74206 -407.202
lclavicle 3.18055e-014 0
lhumerus 61.4602 -17.8584 85.2792
lradius 38.8465
lwrist -17.6939
lhand -16.1257 -18.3955
lfingers 7.12502
lthumb 10.0789 11.3431
rfemur -33.4712 2.68499 20.3959
rtibia 34.2859
rfoot -12.9351 -0.812331
rtoes 32.6693
lfemur -25.6878 0.855892 -16.5677
ltibia 28.1528
lfoot -13.0514 -1.6892
ltoes 16.5446
4215
root 43.9755 18.5294 -9.6439 202.633 -99.5373 -188.132
lowerback 22.9697 5.58263 -3.24823
upperback 12.6194 5.66658 11.6869
thorax -0.310067 1.79586 13.6624
lowerneck -9.82472 -5.98097 -11.1644
upperneck 16.8875 -6.2988 -1.26766
head 7.15777 -3.889 0.80309
rclavicle 2.70347e-014 -4.6118e-014
rhumerus 64.9286 1.33833 -46.9887
rradius 25.4936
rwrist 14.9495
rhand -29.2482 -17.303
rfingers 7.12502
rthumb -2.5914 -407.267
lclavicle 2.70347e-014 -4.6118e-014
lhumerus 60.1907 -18.1322 85.0253
lradius 39.3718
lwrist -17.7956
lhand -17.7042 -17.1668
lfingers 7.12502
lthumb 8.55583 12.6399
rfemur -33.5531 1.96147 21.184
rtibia 34.0214
rfoot -11.9117 -1.97344
rtoes 20.5814
lfemur -26.0055 0.0153316 -16.1036
ltibia 28.3545
lfoot -13.2875 -0.988158
ltoes 16.7098
4216
root 43.9992 18.5737 -9.62024 203.714 -99.6202 -189.403
lowerback 22.7667 5.52601 -3.13599
upperback 12.2753 5.68289 11.6836
thorax -0.59474 1.85396 13.575
lowerneck -9.55634 -5.95423 -11.4353
upperneck 16.982 -6.27006 -1.19977
head 7.1539 -3.89217 0.876088
rclavicle -9.38264e-014 -1.79701e-013
rhumerus 63.6877 1.8789 -46.8013
rradius 25.838
rwrist 15.2439
rhand -29.9141 -18.6708
rfingers 7.12502
rthumb -3.2345 -408.626
lclavicle -9.38264e-014 -1.79701e-013
lhumerus 58.7368 -18.5882 84.5606
lradius 40.1637
lwrist -17.4564
lhand -18.9372 -17.3803
lfingers 7.12502
lthumb 7.36578 12.4714
rfemur -33.3084 2.88652 20.7864
rtibia 33.9862
rfoot -12.1272 -1.91753
rtoes 24.6734
lfemur -25.877 -0.79102 -15.8213
ltibia 28.3674
lfoot -13.444 -0.276368
ltoes 16.7131
4217
root 44.0212 18.5423 -9.58973 202.437 -99.7349 -188.565
lowerback 22.9378 5.41781 -2.88804
upperback 11.9707 5.64788 11.3767
thorax -0.967674 1.90025 13.0368
lowerneck -9.58241 -5.86746 -10.9757
upperneck 17.1179 -6.20304 -1.28314
head 7.17773 -3.84225 0.782962
rclavicle 4.29375e-014 5.88403e-014
rhumerus 62.1058 2.33916 -46.5374
rradius 26.3886
rwrist 14.9142
rhand -30.7719 -19.5688
rfingers 7.12502
rthumb -4.06283 -409.51
lclavicle 4.29375e-014 5.88403e-014
lhumerus 57.3652 -19.4768 83.4294
lradius 41.1582
lwrist -16.7716
lhand -20.2645 -17.427
lfingers 7.12502
lthumb 6.0845 12.4656
rfemur -32.732 2.70946 20.6984
rtibia 33.7391
rfoot -11.8697 -2.48313
rtoes 22.082
lfemur -25.7092 -1.37562 -16.0226
ltibia 28.8267
lfoot -13.7818 0.209363
ltoes 16.3443
4218
root 44.0448 18.5065 -9.55999 201.713 -100.081 -188.243
lowerback 22.9955 4.84714 -3.7758
upperback 11.8456 4.74854 12.1572
thorax -1.00881 1.37891 14.8348
lowerneck -9.39612 -5.11468 -13.7885
upperneck 16.8142 -4.79192 -1.22477
head 7.07987 -3.3481 1.38099
rclavicle 3.18055e-015 -5.40694e-014
rhumerus 62.5834 4.83707 -45.1281
rradius 27.1136
rwrist 14.6914
rhand -30.3085 -18.0608
rfingers 7.12502
rthumb -3.61539 -408.01
lclavicle 3.18055e-015 -5.40694e-014
lhumerus 55.1467 -17.2622 84.1971
lradius 42.2328
lwrist -16.8941
lhand -21.3675 -17.2685
lfingers 7.12502
lthumb 5.0195 12.6521
rfemur -32.3485 2.41583 20.7961
rtibia 33.8302
rfoot -11.8151 -3.22647
rtoes 17.5788
lfemur -25.4777 -1.50502 -16.153
ltibia 28.9075
lfoot -13.7883 0.199522
ltoes 16.0197
4219
root 44.0654 18.4982 -9.53047 201.859 -100.449 -188.779
lowerback 23.0829 4.63811 -3.83332
upperback 11.1572 4.59929 12.0776
thorax -1.78398 1.40577 14.7999
lowerneck -7.96507 -4.82482 -13.2805
upperneck 16.5776 -4.70648 -1.37193
head 6.72631 -3.27776 1.30221
rclavicle 1.11319e-014 -7.63333e-014
rhumerus 60.4984 5.57009 -46.6196
rradius 27.5317
rwrist 15.7144
rhand -30.5954 -16.319
rfingers 7.12502
rthumb -3.8924 -406.263
lclavicle 1.11319e-014 -7.63333e-014
lhumerus 52.5657 -17.9068 83.7082
lradius 43.3685
lwrist -16.6488
lhand -22.3083 -16.8291
lfingers 7.12502
lthumb 4.11107 13.1109
rfemur -31.9152 2.11196 21.0086
rtibia 33.7542
rfoot -11.7372 -3.74784
rtoes 14.8787
lfemur -25.3492 -1.43538 -16.1219
ltibia 29.2065
lfoot -13.8525 -0.278269
ltoes 16.1397
4220
root 44.0829 18.4651 -9.49749 200.655 -100.696 -188.126
lowerback 23.1565 4.64045 -2.59682
upperback 11.3849 4.79531 11.3374
thorax -1.49152 1.54271 13.0368
lowerneck -9.53787 -5.26358 -12.0289
upperneck 16.8419 -5.25035 -1.09069
head 7.07661 -3.4345 1.10789
rclavicle -2.06736e-014 -4.92986e-014
rhumerus 58.7112 3.84462 -48.5775
rradius 28.1457
rwrist 16.2656
rhand -31.8238 -15.684
rfingers 7.12502
rthumb -5.07858 -405.603
lclavicle -2.06736e-014 -4.92986e-014
lhumerus 52.4938 -19.8673 82.118
lradius 44.3882
lwrist -16.3014
lhand -23.5877 -15.8061
lfingers 7.12502
lthumb 2.87555 14.1543
rfemur -31.4281 1.8363 20.9095
rtibia 33.877
rfoot -11.7119 -4.18752
rtoes 12.5782
lfemur -24.6075 -0.718194 -16.6469
ltibia 29.3621
lfoot -14.5969 -0.916386
ltoes 15.4978
4221
root 44.0947 18.4827 -9.45813 199.387 -100.848 -187.498
lowerback 23.4761 4.59286 -2.10567
upperback 10.9337 4.91603 10.7994
thorax -2.11112 1.69694 12.0256
lowerneck -8.76394 -5.18559 -10.7499
upperneck 16.7384 -5.41158 -1.33956
head 6.86163 -3.44589 0.837197
rclavicle 8.11041e-014 6.36111e-014
rhumerus 55.9564 3.83962 -49.5918
rradius 29.1907
rwrist 16.106
rhand -32.8473 -14.8874
rfingers 7.12502
rthumb -6.06675 -404.781
lclavicle 8.11041e-014 6.36111e-014
lhumerus 50.5061 -21.381 81.645
lradius 45.3555
lwrist -16.2204
lhand -24.1167 -15.5642
lfingers 7.12502
lthumb 2.36464 14.4025
rfemur -30.7274 1.75871 20.6658
rtibia 33.9528
rfoot -11.6278 -4.52544
rtoes 9.47314
lfemur -24.2255 -1.60509 -16.6301
ltibia 29.4433
lfoot -14.3204 -0.662809
ltoes 14.7974
4222
root 44.1086 18.4584 -9.42657 199.756 -100.942 -188.549
lowerback 23.7677 4.49562 -1.87991
upperback 10.7976 4.85777 10.7887
thorax -2.37593 1.6876 11.8837
lowerneck -9.3207 -4.95872 -10.8013
upperneck 17.2389 -4.97865 -1.53851
head 7.09995 -3.28078 0.800854
rclavicle 1.27222e-014 5.40694e-014
rhumerus 54.1956 4.58241 -49.7188
rradius 30.4649
rwrist 15.4442
rhand -34.3857 -14.3782
rfingers 7.12502
rthumb -7.55183 -404.223
lclavicle 1.27222e-014 5.40694e-014
lhumerus 48.6841 -21.7936 81.3935
lradius 46.4988
lwrist -15.8379
lhand -24.4244 -16.2191
lfingers 7.12502
lthumb 2.06744 13.7506
rfemur -30.1167 1.77317 20.8005
rtibia 34.1253
rfoot -11.547 -4.70114
rtoes 7.05523
lfemur -23.411 -0.614352 -16.8041
ltibia 29.4814
lfoot -14.9634 -0.91043
ltoes 12.201
4223
root 44.1211 18.4438 -9.40066 199.993 -101.01 -189.523
lowerback 24.1988 4.38835 -1.67287
upperback 10.6167 4.79286 10.6543
thorax -2.75002 1.68327 11.6053
lowerneck -9.93228 -5.63202 -11.4698
upperneck 17.9859 -5.8353 -0.726247
head 7.54084 -3.68482 1.05599
rclavicle -1.74931e-014 -6.04305e-014
rhumerus 52.197 5.36187 -50.3059
rradius 31.9743
rwrist 14.5228
rhand -36.8303 -14.5184
rfingers 7.12502
rthumb -9.91093 -404.265
lclavicle -1.74931e-014 -6.04305e-014
lhumerus 46.8262 -22.5874 80.1347
lradius 48.101
lwrist -14.6321
lhand -24.8364 -16.3571
lfingers 7.12502
lthumb 1.66961 13.6161
rfemur -29.3875 1.92693 20.941
rtibia 34.2297
rfoot -11.389 -5.07752
rtoes 4.18708
lfemur -22.6741 0.214344 -16.8162
ltibia 29.5735
lfoot -15.1518 -1.56338
ltoes 11.5736
4224
root 44.1279 18.4398 -9.36774 199.084 -101.079 -189.242
lowerback 24.4427 4.23011 -1.55389
upperback 10.3907 4.65199 10.417
thorax -3.06559 1.64635 11.2846
lowerneck -9.26424 -4.98211 -11.0173
upperneck 17.2342 -5.06667 -1.01664
head 7.11047 -3.29035 0.997289
rclavicle 3.49861e-014 7.4743e-014
rhumerus 49.9811 5.96344 -51.3494
rradius 33.626
rwrist 14.2565
rhand -38.9068 -14.1596
rfingers 7.12502
rthumb -11.9137 -403.801
lclavicle 3.49861e-014 7.4743e-014
lhumerus 44.4269 -22.8532 80.9368
lradius 49.1301
lwrist -15.0741
lhand -24.8593 -16.6707
lfingers 7.12502
lthumb 1.64746 13.3027
rfemur -28.7767 1.92223 20.8016
rtibia 34.4685
rfoot -11.3898 -5.4025
rtoes 1.36203
lfemur -22.0526 0.711283 -17.0277
ltibia 29.6518
lfoot -15.2381 -2.01362
ltoes 10.7439
